<?xml version="1.0" encoding="iso-8859-1"?>
<!-- Generator: Adobe Illustrator 16.0.0, SVG Export Plug-In . SVG Version: 6.00 Build 0)  -->
<!DOCTYPE svg PUBLIC "-//W3C//DTD SVG 1.1//EN" "http://www.w3.org/Graphics/SVG/1.1/DTD/svg11.dtd">
<svg version="1.1" id="Laag_1" xmlns="http://www.w3.org/2000/svg" xmlns:xlink="http://www.w3.org/1999/xlink" x="0px" y="0px"
	 height= "100%" width="100%" viewBox="0 0 997.908 1521.047" style="enable-background:new 0 0 997.908 1521.047; display:block;"
	 xml:space="preserve">
<image style="overflow:visible;" width="695" height="1017" xlink:href="../img/polka.png"  transform="matrix(1.1761 0 0 1.1761 121.0005 43.0005)">
</image>
<image style="overflow:visible;" width="695" height="1017" xlink:href="../img/polka.png"  transform="matrix(1.1761 0 0 1.1761 121.0005 634.9849)">
</image>
<g>
	<defs>
		<rect id="SVGID_1_" x="120.908" y="1231" width="657" height="208"/>
	</defs>
	<clipPath id="SVGID_2_">
		<use xlink:href="#SVGID_1_"  style="overflow:visible;"/>
	</clipPath>
	<g transform="matrix(1 0 0 1 0 -1.220703e-004)" style="clip-path:url(#SVGID_2_);">
		
			<image style="overflow:visible;" width="695" height="1017" xlink:href="../img/polka.png"  transform="matrix(1.1761 0 0 1.1761 121.0005 1230.9844)">
		</image>
	</g>
</g>
<g>
	<defs>
		<rect id="SVGID_3_" x="614.908" y="1231" width="401" height="208"/>
	</defs>
	<clipPath id="SVGID_4_">
		<use xlink:href="#SVGID_3_"  style="overflow:visible;"/>
	</clipPath>
	<g transform="matrix(1 0 0 1 -1.525879e-005 -1.220703e-004)" style="clip-path:url(#SVGID_4_);">
		
			<image style="overflow:visible;" width="695" height="1017" xlink:href="../img/polka.png"  transform="matrix(1.1761 0 0 1.1761 199.0005 1230.9844)">
		</image>
	</g>
</g>
<image id="svg_primary" style="overflow:visible;" width="1010" height="1530" xlink:href="../img/fitness_service_extension.png"  transform="matrix(1 0 0 1 -12.0918 -1)">
</image>
<image id="svg_secundary" style="overflow:visible;" width="1010" height="1530" xlink:href="../img/fitness_service_extension_arm.png"  transform="matrix(1 0 0 1 -12.0918 -1)">
</image>
<rect x="280.908" y="1231" style="fill:none;" width="657" height="208"/>
</svg>
